<mxfile host="app.diagrams.net" modified="2021-12-02T13:07:12.708Z" agent="5.0 (Windows NT 10.0; WOW64) AppleWebKit/537.36 (KHTML, like Gecko) Chrome/96.0.4664.45 Safari/537.36" etag="zwj4Nge1VFwG-XhAdmnk" version="15.8.8" type="github">
  <diagram id="R2lEEEUBdFMjLlhIrx00" name="Page-1">
    <mxGraphModel dx="1483" dy="781" grid="1" gridSize="10" guides="1" tooltips="1" connect="1" arrows="1" fold="1" page="1" pageScale="1" pageWidth="850" pageHeight="1100" math="0" shadow="0" extFonts="Permanent Marker^https://fonts.googleapis.com/css?family=Permanent+Marker">
      <root>
        <mxCell id="0" />
        <mxCell id="1" parent="0" />
        <mxCell id="lT0vyQ4dc75wHIpq4xm1-1" value="" style="line;strokeWidth=2;direction=south;html=1;" vertex="1" parent="1">
          <mxGeometry x="290" y="200" width="10" height="430" as="geometry" />
        </mxCell>
        <mxCell id="lT0vyQ4dc75wHIpq4xm1-2" value="commits history" style="shape=ext;double=1;rounded=1;whiteSpace=wrap;html=1;" vertex="1" parent="1">
          <mxGeometry x="225" y="130" width="120" height="40" as="geometry" />
        </mxCell>
        <mxCell id="lT0vyQ4dc75wHIpq4xm1-19" value="site Web Config(DB)" style="swimlane;fontStyle=0;childLayout=stackLayout;horizontal=1;startSize=26;horizontalStack=0;resizeParent=1;resizeParentMax=0;resizeLast=0;collapsible=1;marginBottom=0;align=center;fontSize=14;" vertex="1" parent="1">
          <mxGeometry x="20" y="270" width="160" height="116" as="geometry" />
        </mxCell>
        <mxCell id="lT0vyQ4dc75wHIpq4xm1-20" value="site config" style="text;strokeColor=none;fillColor=none;spacingLeft=4;spacingRight=4;overflow=hidden;rotatable=0;points=[[0,0.5],[1,0.5]];portConstraint=eastwest;fontSize=12;" vertex="1" parent="lT0vyQ4dc75wHIpq4xm1-19">
          <mxGeometry y="26" width="160" height="30" as="geometry" />
        </mxCell>
        <mxCell id="lT0vyQ4dc75wHIpq4xm1-21" value="route config" style="text;strokeColor=none;fillColor=none;spacingLeft=4;spacingRight=4;overflow=hidden;rotatable=0;points=[[0,0.5],[1,0.5]];portConstraint=eastwest;fontSize=12;" vertex="1" parent="lT0vyQ4dc75wHIpq4xm1-19">
          <mxGeometry y="56" width="160" height="30" as="geometry" />
        </mxCell>
        <mxCell id="lT0vyQ4dc75wHIpq4xm1-22" value="UI config" style="text;strokeColor=none;fillColor=none;spacingLeft=4;spacingRight=4;overflow=hidden;rotatable=0;points=[[0,0.5],[1,0.5]];portConstraint=eastwest;fontSize=12;" vertex="1" parent="lT0vyQ4dc75wHIpq4xm1-19">
          <mxGeometry y="86" width="160" height="30" as="geometry" />
        </mxCell>
        <mxCell id="lT0vyQ4dc75wHIpq4xm1-28" value="site Code(Git)" style="swimlane;fontStyle=0;childLayout=stackLayout;horizontal=1;startSize=26;horizontalStack=0;resizeParent=1;resizeParentMax=0;resizeLast=0;collapsible=1;marginBottom=0;align=center;fontSize=14;" vertex="1" parent="1">
          <mxGeometry x="20" y="450" width="160" height="56" as="geometry" />
        </mxCell>
        <mxCell id="lT0vyQ4dc75wHIpq4xm1-30" value="Basic UI config" style="text;strokeColor=none;fillColor=none;spacingLeft=4;spacingRight=4;overflow=hidden;rotatable=0;points=[[0,0.5],[1,0.5]];portConstraint=eastwest;fontSize=12;" vertex="1" parent="lT0vyQ4dc75wHIpq4xm1-28">
          <mxGeometry y="26" width="160" height="30" as="geometry" />
        </mxCell>
        <mxCell id="lT0vyQ4dc75wHIpq4xm1-32" value="Site Release" style="shape=ext;double=1;rounded=1;whiteSpace=wrap;html=1;" vertex="1" parent="1">
          <mxGeometry x="480" y="140" width="120" height="40" as="geometry" />
        </mxCell>
        <mxCell id="lT0vyQ4dc75wHIpq4xm1-33" value="Site Data Source" style="shape=ext;double=1;rounded=1;whiteSpace=wrap;html=1;" vertex="1" parent="1">
          <mxGeometry x="40" y="130" width="120" height="40" as="geometry" />
        </mxCell>
        <mxCell id="lT0vyQ4dc75wHIpq4xm1-59" style="edgeStyle=orthogonalEdgeStyle;curved=1;rounded=0;orthogonalLoop=1;jettySize=auto;html=1;exitX=0.1;exitY=0.5;exitDx=0;exitDy=0;exitPerimeter=0;entryX=1;entryY=0.5;entryDx=0;entryDy=0;entryPerimeter=0;startArrow=none;" edge="1" parent="1" source="lT0vyQ4dc75wHIpq4xm1-35" target="lT0vyQ4dc75wHIpq4xm1-1">
          <mxGeometry relative="1" as="geometry" />
        </mxCell>
        <mxCell id="lT0vyQ4dc75wHIpq4xm1-43" value="" style="shape=curlyBracket;whiteSpace=wrap;html=1;rounded=1;flipH=1;" vertex="1" parent="1">
          <mxGeometry x="180" y="340" width="20" height="120" as="geometry" />
        </mxCell>
        <mxCell id="lT0vyQ4dc75wHIpq4xm1-45" value="New Site" style="shape=hexagon;perimeter=hexagonPerimeter2;whiteSpace=wrap;html=1;fixedSize=1;" vertex="1" parent="1">
          <mxGeometry x="210" y="530" width="80" height="40" as="geometry" />
        </mxCell>
        <mxCell id="lT0vyQ4dc75wHIpq4xm1-50" value="V1.0.0" style="text;html=1;align=center;verticalAlign=middle;resizable=0;points=[];autosize=1;strokeColor=none;fillColor=none;" vertex="1" parent="1">
          <mxGeometry x="310" y="620" width="50" height="20" as="geometry" />
        </mxCell>
        <mxCell id="lT0vyQ4dc75wHIpq4xm1-67" style="edgeStyle=orthogonalEdgeStyle;curved=1;rounded=0;orthogonalLoop=1;jettySize=auto;html=1;exitX=1;exitY=0.5;exitDx=0;exitDy=0;" edge="1" parent="1" source="lT0vyQ4dc75wHIpq4xm1-35">
          <mxGeometry relative="1" as="geometry">
            <mxPoint x="360" y="640.4285714285716" as="targetPoint" />
          </mxGeometry>
        </mxCell>
        <mxCell id="lT0vyQ4dc75wHIpq4xm1-35" value="" style="rhombus;whiteSpace=wrap;html=1;strokeWidth=2;fillWeight=-1;hachureGap=8;fillStyle=cross-hatch;fillColor=#006600;sketch=1;" vertex="1" parent="1">
          <mxGeometry x="280" y="630" width="30" height="20" as="geometry" />
        </mxCell>
        <mxCell id="lT0vyQ4dc75wHIpq4xm1-62" value="" style="edgeStyle=orthogonalEdgeStyle;curved=1;rounded=0;orthogonalLoop=1;jettySize=auto;html=1;exitX=0.1;exitY=0.5;exitDx=0;exitDy=0;exitPerimeter=0;entryX=1;entryY=0.5;entryDx=0;entryDy=0;entryPerimeter=0;endArrow=none;" edge="1" parent="1" source="lT0vyQ4dc75wHIpq4xm1-43" target="lT0vyQ4dc75wHIpq4xm1-35">
          <mxGeometry relative="1" as="geometry">
            <mxPoint x="197.99999999999977" y="400" as="sourcePoint" />
            <mxPoint x="295" y="630" as="targetPoint" />
            <Array as="points">
              <mxPoint x="260" y="400" />
              <mxPoint x="260" y="640" />
            </Array>
          </mxGeometry>
        </mxCell>
        <mxCell id="lT0vyQ4dc75wHIpq4xm1-74" value="" style="edgeStyle=orthogonalEdgeStyle;curved=1;rounded=0;orthogonalLoop=1;jettySize=auto;html=1;" edge="1" parent="1" source="lT0vyQ4dc75wHIpq4xm1-70" target="lT0vyQ4dc75wHIpq4xm1-35">
          <mxGeometry relative="1" as="geometry" />
        </mxCell>
        <mxCell id="lT0vyQ4dc75wHIpq4xm1-79" style="edgeStyle=orthogonalEdgeStyle;curved=1;rounded=0;orthogonalLoop=1;jettySize=auto;html=1;exitX=1;exitY=0.5;exitDx=0;exitDy=0;entryX=0;entryY=0.5;entryDx=0;entryDy=0;" edge="1" parent="1" source="lT0vyQ4dc75wHIpq4xm1-70" target="lT0vyQ4dc75wHIpq4xm1-75">
          <mxGeometry relative="1" as="geometry" />
        </mxCell>
        <mxCell id="lT0vyQ4dc75wHIpq4xm1-70" value="Alpha" style="rounded=1;whiteSpace=wrap;html=1;" vertex="1" parent="1">
          <mxGeometry x="360" y="620" width="60" height="40" as="geometry" />
        </mxCell>
        <mxCell id="lT0vyQ4dc75wHIpq4xm1-80" style="edgeStyle=orthogonalEdgeStyle;curved=1;rounded=0;orthogonalLoop=1;jettySize=auto;html=1;exitX=1;exitY=0.5;exitDx=0;exitDy=0;entryX=0;entryY=0.5;entryDx=0;entryDy=0;" edge="1" parent="1" source="lT0vyQ4dc75wHIpq4xm1-75" target="lT0vyQ4dc75wHIpq4xm1-76">
          <mxGeometry relative="1" as="geometry" />
        </mxCell>
        <mxCell id="lT0vyQ4dc75wHIpq4xm1-75" value="Beta" style="rounded=1;whiteSpace=wrap;html=1;" vertex="1" parent="1">
          <mxGeometry x="480" y="620" width="60" height="40" as="geometry" />
        </mxCell>
        <mxCell id="lT0vyQ4dc75wHIpq4xm1-81" style="edgeStyle=orthogonalEdgeStyle;curved=1;rounded=0;orthogonalLoop=1;jettySize=auto;html=1;exitX=1;exitY=0.5;exitDx=0;exitDy=0;entryX=0;entryY=0.5;entryDx=0;entryDy=0;" edge="1" parent="1" source="lT0vyQ4dc75wHIpq4xm1-76" target="lT0vyQ4dc75wHIpq4xm1-77">
          <mxGeometry relative="1" as="geometry" />
        </mxCell>
        <mxCell id="lT0vyQ4dc75wHIpq4xm1-76" value="RC" style="rounded=1;whiteSpace=wrap;html=1;" vertex="1" parent="1">
          <mxGeometry x="590" y="620" width="60" height="40" as="geometry" />
        </mxCell>
        <mxCell id="lT0vyQ4dc75wHIpq4xm1-77" value="GA" style="rounded=1;whiteSpace=wrap;html=1;" vertex="1" parent="1">
          <mxGeometry x="720" y="620" width="60" height="40" as="geometry" />
        </mxCell>
        <mxCell id="lT0vyQ4dc75wHIpq4xm1-82" value="" style="rhombus;whiteSpace=wrap;html=1;strokeWidth=2;fillWeight=-1;hachureGap=8;fillStyle=cross-hatch;fillColor=#006600;sketch=1;" vertex="1" parent="1">
          <mxGeometry x="280" y="510" width="30" height="20" as="geometry" />
        </mxCell>
        <mxCell id="lT0vyQ4dc75wHIpq4xm1-92" style="edgeStyle=orthogonalEdgeStyle;curved=1;rounded=0;orthogonalLoop=1;jettySize=auto;html=1;exitX=1;exitY=0.5;exitDx=0;exitDy=0;entryX=0;entryY=0.5;entryDx=0;entryDy=0;" edge="1" parent="1" source="lT0vyQ4dc75wHIpq4xm1-93" target="lT0vyQ4dc75wHIpq4xm1-95">
          <mxGeometry relative="1" as="geometry" />
        </mxCell>
        <mxCell id="lT0vyQ4dc75wHIpq4xm1-93" value="Alpha" style="rounded=1;whiteSpace=wrap;html=1;" vertex="1" parent="1">
          <mxGeometry x="354" y="496" width="60" height="37" as="geometry" />
        </mxCell>
        <mxCell id="lT0vyQ4dc75wHIpq4xm1-94" style="edgeStyle=orthogonalEdgeStyle;curved=1;rounded=0;orthogonalLoop=1;jettySize=auto;html=1;exitX=1;exitY=0.5;exitDx=0;exitDy=0;entryX=0;entryY=0.5;entryDx=0;entryDy=0;" edge="1" parent="1" source="lT0vyQ4dc75wHIpq4xm1-95" target="lT0vyQ4dc75wHIpq4xm1-97">
          <mxGeometry relative="1" as="geometry" />
        </mxCell>
        <mxCell id="lT0vyQ4dc75wHIpq4xm1-95" value="Beta" style="rounded=1;whiteSpace=wrap;html=1;" vertex="1" parent="1">
          <mxGeometry x="474" y="496" width="60" height="37" as="geometry" />
        </mxCell>
        <mxCell id="lT0vyQ4dc75wHIpq4xm1-96" style="edgeStyle=orthogonalEdgeStyle;curved=1;rounded=0;orthogonalLoop=1;jettySize=auto;html=1;exitX=1;exitY=0.5;exitDx=0;exitDy=0;entryX=0;entryY=0.5;entryDx=0;entryDy=0;" edge="1" parent="1" source="lT0vyQ4dc75wHIpq4xm1-97" target="lT0vyQ4dc75wHIpq4xm1-98">
          <mxGeometry relative="1" as="geometry" />
        </mxCell>
        <mxCell id="lT0vyQ4dc75wHIpq4xm1-97" value="RC" style="rounded=1;whiteSpace=wrap;html=1;" vertex="1" parent="1">
          <mxGeometry x="584" y="496" width="60" height="37" as="geometry" />
        </mxCell>
        <mxCell id="lT0vyQ4dc75wHIpq4xm1-98" value="GA" style="rounded=1;whiteSpace=wrap;html=1;" vertex="1" parent="1">
          <mxGeometry x="714" y="496" width="60" height="37" as="geometry" />
        </mxCell>
      </root>
    </mxGraphModel>
  </diagram>
</mxfile>
